<svg width="30" height="30" viewBox="0 0 30 30" fill="none" xmlns="http://www.w3.org/2000/svg">
<circle cx="15" cy="15" r="14.5" transform="rotate(180 15 15)" stroke="url(#paint0_linear_181_883)"/>
<path d="M12.1609 15.3887L16.6115 19.8391C16.8261 20.0536 17.1742 20.0536 17.3887 19.8391L17.9079 19.3199C18.1222 19.1056 18.1224 18.7584 17.9088 18.5436L14.3815 15.0001L17.9085 11.4564C18.1224 11.2416 18.122 10.8944 17.9076 10.6801L17.3885 10.1609C17.1739 9.94635 16.8258 9.94635 16.6113 10.1609L12.1609 14.6115C11.9464 14.8261 11.9464 15.1742 12.1609 15.3887Z" fill="url(#paint1_linear_181_883)"/>
<defs>
<linearGradient id="paint0_linear_181_883" x1="-9.53674e-07" y1="15" x2="30" y2="15" gradientUnits="userSpaceOnUse">
<stop stop-color="#E76100"/>
<stop offset="1" stop-color="#EF8200"/>
</linearGradient>
<linearGradient id="paint1_linear_181_883" x1="12" y1="15" x2="18.0688" y2="15" gradientUnits="userSpaceOnUse">
<stop stop-color="#E76100"/>
<stop offset="1" stop-color="#EF8200"/>
</linearGradient>
</defs>
</svg>
