<svg width="24" height="24" viewBox="0 0 24 24" fill="none" xmlns="http://www.w3.org/2000/svg">
<g clip-path="url(#clip0_271_498)">
<path d="M15.609 9.96493C15.5435 9.89937 15.467 9.84474 15.3796 9.81196C15.2921 9.77371 15.1993 9.75732 15.1064 9.75732C15.0135 9.75732 14.9206 9.77371 14.8332 9.81196C14.7458 9.8502 14.6693 9.89937 14.6038 9.96493L10.8341 13.7346L9.20063 12.1011C9.13507 12.0355 9.05312 11.9809 8.97118 11.9481C8.88376 11.9098 8.79089 11.8934 8.69801 11.8934C8.60514 11.8934 8.51226 11.9098 8.42485 11.9481C8.33744 11.9863 8.26095 12.0355 8.1954 12.1011C8.12984 12.1666 8.0752 12.2486 8.04243 12.3305C8.00418 12.4179 7.98779 12.5108 7.98779 12.6037C7.98779 12.6965 8.00418 12.7894 8.04243 12.8768C8.08067 12.9642 8.12984 13.0407 8.1954 13.1063L10.3315 15.2424C10.3971 15.308 10.4736 15.3626 10.561 15.3954C10.6484 15.4336 10.7413 15.45 10.8341 15.45C10.927 15.45 11.0199 15.4336 11.1073 15.3954C11.1947 15.3571 11.2712 15.308 11.3368 15.2424L15.609 10.9702C15.6746 10.9046 15.7292 10.8281 15.762 10.7407C15.8002 10.6533 15.8166 10.5604 15.8166 10.4675C15.8166 10.3747 15.8002 10.2818 15.762 10.1944C15.7292 10.1124 15.68 10.0359 15.609 9.96493Z" fill="white"/>
<path fill-rule="evenodd" clip-rule="evenodd" d="M17.1227 1.19092C17.9413 1.19092 18.7328 1.51135 19.3129 2.08278C19.893 2.65421 20.2183 3.42857 20.2183 4.24032V20.9506C20.2183 21.757 19.893 22.5367 19.3129 23.1081C18.7328 23.6796 17.9467 24 17.1227 24H5.81383C4.98979 24 4.2037 23.6796 3.62362 23.1081C3.04354 22.5367 2.71826 21.7624 2.71826 20.9506V4.24032C2.71826 3.42857 3.04354 2.65421 3.62362 2.07744C4.2037 1.50601 4.98979 1.18558 5.81383 1.18558H9.5944C9.92011 0.487883 10.6317 0 11.4683 0C12.3053 0 13.0172 0.488406 13.3427 1.19092H17.1227ZM18.9334 2.45661L19.1232 2.26969L18.928 2.45661C18.4509 1.98665 17.8004 1.71963 17.1227 1.71963H12.97L12.9049 1.54339C12.6935 0.955941 12.1351 0.534045 11.4683 0.534045C10.8069 0.534045 10.243 0.955941 10.0316 1.54339L9.96656 1.71963H5.81383C5.13617 1.71963 4.48561 1.98665 4.00853 2.45661C3.53146 2.93191 3.26039 3.56742 3.26039 4.24032V20.9453C3.26039 21.6128 3.53146 22.2537 4.00853 22.7236C4.48561 23.1936 5.13617 23.4606 5.81383 23.4606H17.1281C17.8058 23.4606 18.4563 23.1936 18.9334 22.7236C19.4105 22.2537 19.6816 21.6128 19.6816 20.9453V4.23498C19.6816 3.56742 19.4105 2.92657 18.9334 2.45661ZM18.2666 20.9453V4.24032C18.2666 3.94126 18.1473 3.65821 17.9305 3.44459C17.7136 3.23097 17.4263 3.11348 17.1227 3.11348H13.2236C12.8607 3.6924 12.2155 4.08545 11.4683 4.08545C10.721 4.08545 10.0758 3.6924 9.71294 3.11348H5.81383C5.51024 3.11348 5.22291 3.23097 5.00606 3.44459C4.7892 3.65821 4.66993 3.94126 4.66993 4.24032V20.9453C4.66993 21.2443 4.7892 21.5274 5.00606 21.741C5.22291 21.9546 5.51024 22.0721 5.81383 22.0721H17.1227C17.4263 22.0721 17.7136 21.9546 17.9305 21.741C18.1473 21.5274 18.2666 21.2443 18.2666 20.9453ZM18.8087 4.24032V20.9506C18.8087 21.3939 18.6298 21.8158 18.3154 22.1255C17.9955 22.4352 17.5672 22.6115 17.1227 22.6115H5.81383C5.36386 22.6115 4.93558 22.4352 4.62114 22.1255C4.30671 21.8104 4.1278 21.3885 4.1278 20.9506V4.24032C4.1278 3.79706 4.30671 3.37517 4.62114 3.06542C4.941 2.75567 5.36928 2.57944 5.81383 2.57944H10.037L10.1129 2.72363C10.3677 3.21495 10.8773 3.5514 11.4683 3.5514C12.0592 3.5514 12.5688 3.21495 12.8236 2.72363L12.8995 2.57944H17.1227C17.5727 2.57944 18.0009 2.75567 18.3154 3.06542C18.6298 3.38051 18.8087 3.8024 18.8087 4.24032Z" fill="white"/>
<path fill-rule="evenodd" clip-rule="evenodd" d="M17.2427 1.21284C18.0021 1.21284 18.7232 1.51332 19.2586 2.04871C19.794 2.58411 20.0945 3.30526 20.0999 4.05919V21.1537C20.0999 21.913 19.7995 22.6342 19.2641 23.1696C18.7287 23.705 18.0021 24.0055 17.2481 24.0055H5.85181C5.09242 24.0055 4.37127 23.705 3.83588 23.1696C3.30048 22.6342 3 21.9076 3 21.1537V4.05919C3 3.30526 3.30048 2.58411 3.83041 2.04871C4.36581 1.51332 5.09242 1.21284 5.84635 1.21284H9.83997C10.0913 0.508081 10.7523 0 11.5445 0C12.3367 0 13.0032 0.508081 13.249 1.21284H17.2427ZM18.2534 22.1589C18.5211 21.8912 18.6686 21.5306 18.6686 21.1537H18.6631V4.05919C18.6631 3.68222 18.5156 3.32165 18.2479 3.05395C17.9802 2.78625 17.6196 2.63874 17.2427 2.63874H13.1562C12.8557 3.22877 12.2493 3.63305 11.5445 3.63305C10.8397 3.63305 10.2333 3.22331 9.93285 2.63874H5.84635C5.46938 2.63874 5.10881 2.78625 4.84111 3.05395C4.57341 3.32165 4.4259 3.68222 4.4259 4.05919V21.1537C4.4259 21.5306 4.57341 21.8912 4.84111 22.1589C5.10881 22.4266 5.46938 22.5741 5.84635 22.5741H17.2481C17.6251 22.5741 17.9857 22.4266 18.2534 22.1589ZM11.5 3.3C12.1904 3.3 12.75 2.74036 12.75 2.05C12.75 1.35965 12.1904 0.800003 11.5 0.800003C10.8096 0.800003 10.25 1.35965 10.25 2.05C10.25 2.74036 10.8096 3.3 11.5 3.3Z" fill="white"/>
</g>
<defs>
<clipPath id="clip0_271_498">
<rect width="24" height="24" fill="white"/>
</clipPath>
</defs>
</svg>
