<svg width="24" height="24" viewBox="0 0 24 24" fill="none" xmlns="http://www.w3.org/2000/svg">
<path d="M10.2 4.8C7.21766 4.8 4.8 7.21766 4.8 10.2C4.8 13.1823 7.21766 15.6 10.2 15.6C13.1823 15.6 15.6 13.1823 15.6 10.2C15.6 7.21766 13.1823 4.8 10.2 4.8ZM3 10.2C3 6.22355 6.22355 3 10.2 3C14.1764 3 17.4 6.22355 17.4 10.2C17.4 11.8638 16.8356 13.3959 15.8879 14.6151L20.7364 19.4636C21.0879 19.8151 21.0879 20.3849 20.7364 20.7364C20.3849 21.0879 19.8151 21.0879 19.4636 20.7364L14.6151 15.8879C13.3959 16.8356 11.8638 17.4 10.2 17.4C6.22355 17.4 3 14.1764 3 10.2Z" fill="#E76100"/>
</svg>
